<svg width="16" height="16" viewBox="0 0 16 16" fill="none" xmlns="http://www.w3.org/2000/svg">
<path fill-rule="evenodd" clip-rule="evenodd" d="M2.5 2.25C1.5335 2.25 0.75 3.0335 0.75 4V12C0.75 12.9665 1.5335 13.75 2.5 13.75H13.5C14.4665 13.75 15.25 12.9665 15.25 12V4C15.25 3.0335 14.4665 2.25 13.5 2.25H2.5ZM2.25 5.21301V12C2.25 12.1381 2.36193 12.25 2.5 12.25H13.5C13.6381 12.25 13.75 12.1381 13.75 12V5.21297L9.18697 9.425C8.51661 10.0438 7.48335 10.0438 6.81299 9.425L2.25 5.21301ZM13.1234 3.75H2.87655L7.83041 8.32279C7.92618 8.41119 8.07379 8.41119 8.16955 8.32279L13.1234 3.75Z" fill="white"/>
</svg>
