<svg width="16" height="16" viewBox="0 0 16 16" fill="none" xmlns="http://www.w3.org/2000/svg">
<path d="M9.5 10C9.5 10.8284 8.82843 11.5 8 11.5C7.17157 11.5 6.5 10.8284 6.5 10C6.5 9.17157 7.17157 8.5 8 8.5C8.82843 8.5 9.5 9.17157 9.5 10Z" fill="white"/>
<path fill-rule="evenodd" clip-rule="evenodd" d="M3.75723 4.75C3.88664 2.51916 5.73671 0.75 8 0.75C10.2633 0.75 12.1134 2.51916 12.2428 4.75H12.5C14.0188 4.75 15.25 5.98122 15.25 7.5V12.5C15.25 14.0188 14.0188 15.25 12.5 15.25H3.5C1.98122 15.25 0.75 14.0188 0.75 12.5V7.5C0.75 5.98122 1.98122 4.75 3.5 4.75H3.75723ZM5.26121 4.75C5.38752 3.34838 6.56549 2.25 8 2.25C9.43451 2.25 10.6125 3.34838 10.7388 4.75H5.26121ZM3.5 6.25C2.80964 6.25 2.25 6.80964 2.25 7.5V12.5C2.25 13.1904 2.80964 13.75 3.5 13.75H12.5C13.1904 13.75 13.75 13.1904 13.75 12.5V7.5C13.75 6.80964 13.1904 6.25 12.5 6.25H3.5Z" fill="white"/>
</svg>
